<svg xmlns="http://www.w3.org/2000/svg" baseProfile="tiny" viewBox="0 0 150.662 17.479" overflow="visible" fill=currentColor><path d="M7.024 10.433l-.182.485c-.465 1.172-.646 1.779-.687 2.285l-.04.364c-.061.526-.223.708-.89 1.072-.91.485-1.537.748-1.8.748-.222 0-.525-.223-.768-.546-.264-.364-.344-.586-.344-.91 0-.303.061-.626.202-1.172.303-1.072.546-1.719 1.253-3.417l1.698-3.579.748-1.456c.283-.525.324-.647.385-.95.121-.627.222-.748.829-1.011.565-.243 1.455-.465 1.859-.465.283 0 .485.101.729.344.303.344.565.809.565 1.031 0 .182-.081.364-.242.647l-.566.91c-.425.667-.89 1.517-1.314 2.406l2.992-.203.223-.02c.183-.445.344-.748.667-1.354l.404-.748.304-.586c.263-.465.344-.667.404-1.071.081-.465.202-.607.809-.87.566-.263 1.456-.505 1.9-.505.243 0 .404.101.688.384.344.364.566.768.566 1.031 0 .202-.061.364-.263.647-.971 1.496-1.779 3.013-2.689 5.055l-.909 2.285c-.385 1.011-.546 1.577-.566 1.92l-.041.485c-.04.404-.242.627-.909.991-.869.465-1.496.728-1.779.728-.242 0-.525-.223-.869-.708a1.12 1.12 0 0 1-.243-.728c0-.263.041-.546.202-1.072.324-1.193.485-1.698.95-2.75-1.011 0-2.062.101-3.275.303zm4.104-1.193l-.829 2.022c-.121.283-.384 1.132-.525 1.678-.142.465-.202.788-.202 1.011 0 .243.121.384.283.384s.162 0 1.051-.384c1.092-.505 1.214-.606 1.233-1.193.041-.546.122-.93.404-1.678l1.294-3.113 1.577-3.215.688-1.173.142-.222.142-.202a1.25 1.25 0 0 0 .081-.142c.121-.162.142-.202.142-.303 0-.222-.223-.445-.465-.445-.385 0-.91.121-1.618.384-.525.202-.586.263-.667.748-.061.384-.081.445-.223.708l-.222.364c-.021.061-.122.243-.243.485l-.283.566-.909 1.86-1.881.101-2.992.323c.202-.505.385-.89.931-1.981.688-1.396 1.03-1.961 1.557-2.689.121-.202.182-.303.182-.404 0-.242-.223-.465-.505-.465s-.951.182-1.577.404c-.546.202-.606.263-.647.647-.04.283-.142.606-.263.809l-.142.243-.748 1.436-2.103 4.61c-.667 1.658-1.031 2.932-1.031 3.558 0 .223.081.344.283.344.182 0 .425-.081 1.011-.364 1.152-.546 1.193-.586 1.233-1.193.04-.465.121-.809.364-1.476l.485-1.314c.08-.202.101-.263.263-.566l.485-.061c1.778-.243 2.851-.323 4.347-.344l-.102.243zm11.508-2.992l.748-.809c.343-.344 1.232-1.354 1.759-1.961l.728-.91c.344-.505.525-.647.95-.89.606-.323 1.273-.546 1.678-.546.364 0 .607.122.91.485.283.324.425.647.425.91 0 .243-.102.384-.506.748-.263.243-.687.647-.909.93l-.587.627L24.9 8.067c-1.455 1.597-2.527 3.619-2.669 5.054l-.061.485c-.04.526-.242.728-1.294 1.314-.707.404-1.273.627-1.536.627-.223 0-.425-.162-.728-.546-.243-.344-.385-.667-.385-.95a2.05 2.05 0 0 1 .142-.748l.667-1.799.445-1.092.363-.849.102-.223c-.444-.789-.748-1.496-1.173-2.729-.546-1.536-.769-2.365-.909-3.579.646-.626 1.415-1.011 2.042-1.011.384 0 .626.182 1.152.829.303.384.384.485.465.829l.89 2.831.223-.263zM20.29 9.584l-.425.93-.909 2.386c-.223.586-.324 1.011-.324 1.193 0 .243.102.384.283.384.202 0 .688-.202 1.436-.606.627-.323.788-.465.829-.789.384-2.143 1.213-3.76 2.851-5.6l2.689-3.033.93-.991.505-.526c.223-.263.264-.283.344-.364.385-.384.466-.465.466-.647 0-.222-.223-.445-.506-.445s-.829.182-1.294.404c-.364.182-.586.384-.788.667l-.162.263c-.202.303-.465.627-1.071 1.314L24.03 5.379l-1.698 1.86c-.162.182-.283.263-.344.263s-.142-.081-.202-.222a14.11 14.11 0 0 1-.728-1.921l-.364-1.253-.304-1.031c-.101-.505-.222-.647-.546-.647-.444 0-1.03.303-1.576.769.242 1.779 1.233 4.508 2.163 6.065l-.142.323zm9.767-4.65c-.283-.263-.445-.546-.445-.809 0-.566.445-.93 1.517-1.294 2.446-.849 3.861-1.092 5.924-1.092 1.436 0 2.284.243 3.032.87.668.566 1.052 1.375 1.052 2.204 0 1.557-1.233 3.114-3.457 4.367-1.881 1.051-3.579 1.597-5.984 1.88-.324.748-.606 1.658-.687 2.285l-.061.445c-.061.364-.283.606-.87.91l-.828.445c-.485.263-.729.364-.95.364s-.364-.081-.627-.424c-.344-.425-.506-.708-.506-.991 0-.445.202-1.253.525-2.184a61.53 61.53 0 0 1 2.083-4.893l.788-1.617-.505-.465zm.121 2.244l-1.557 3.437c-.566 1.395-1.031 2.952-1.031 3.457 0 .243.101.364.283.364.242 0 .971-.303 1.597-.667.526-.283.526-.303.647-.93l.061-.304c.081-.404.162-.667.465-1.516.344-.95.364-.971.748-.991.809 0 2.285-.283 3.315-.627 3.296-1.112 5.479-3.194 5.479-5.176 0-.708-.344-1.354-.89-1.658-.525-.283-1.314-.404-2.406-.404-1.819 0-3.497.324-5.661 1.072-.889.323-1.192.525-1.192.829 0 .182.142.283.425.283.081 0 .161 0 .223-.021l.444-.101c.101-.02.182-.04.242-.04.102 0 .183.081.183.162 0 .041-.021.101-.041.162l-.182.364-1.152 2.305zm1.799.647l.506-1.011.546-1.071.506-.93c.546-1.071.586-1.132.89-1.233.282-.121 1.132-.222 1.718-.222 1.173 0 1.82.465 1.82 1.314 0 .93-.729 1.981-1.86 2.729-1.112.748-2.75 1.274-3.942 1.274-.263 0-.385-.061-.404-.202 0-.101.101-.384.222-.647zm3.842-.769c.91-.586 1.577-1.476 1.577-2.083 0-.465-.323-.626-1.152-.626-.425 0-.869.041-1.335.101l-.161.303-.769 1.375-.829 1.577-.182.384a6.53 6.53 0 0 0 2.851-1.031zm11.183-.363l1.658-.061c.769 0 .971.041 1.233.283.283.263.465.566.465.769 0 .445-.646 1.071-1.557 1.516-.566.283-.748.303-1.779.364l-1.436.081c-.93.041-1.152.142-1.354.647-.242.526-.485 1.355-.606 2.083a5.24 5.24 0 0 0 .748.041c.99 0 1.941-.162 3.861-.687.263-.061.526-.101.708-.101.283 0 .485.101.688.364.182.243.323.586.323.789 0 .465-.404.93-1.233 1.416-1.314.789-3.093 1.193-5.317 1.193-1.375 0-2.082-.202-2.648-.769-.485-.485-.769-1.233-.769-2.021 0-.607.183-1.334.607-2.507.343-.93 1.011-2.466 1.496-3.457l.788-1.577.142-.263c.081-.182.101-.283.101-.344s0-.101-.04-.182c-.081-.243-.101-.303-.101-.424 0-.465.626-1.092 1.334-1.334.404-.142 1.192-.283 2.163-.364a49.48 49.48 0 0 1 3.579-.162c1.092 0 1.617.061 1.98.223.405.182.647.505.647.849 0 .404-.465.991-1.254 1.496-.586.384-1.172.505-2.345.505l-1.335.021c-.809 0-1.071.081-1.334.465-.162.243-.404.748-.586 1.253l1.172-.101zm2.346-2.729c.869-.02 1.254-.142 1.779-.525.384-.304.627-.586.627-.748-.021-.162-.122-.202-.587-.243l-1.111-.021a43.19 43.19 0 0 0-4.307.243c-1.011.101-1.517.263-1.9.586-.243.202-.404.445-.404.627a.9.9 0 0 0 .061.263c.081.182.081.243.081.323 0 .142-.062.303-.264.728L42.23 7.481l-1.273 2.972c-.363 1.011-.505 1.536-.505 2.062 0 1.274.909 1.941 2.668 1.941 1.092 0 2.467-.182 3.538-.465 1.254-.344 2.508-1.193 2.508-1.698 0-.162-.102-.263-.263-.263a1.39 1.39 0 0 0-.385.061l-.93.263a16.34 16.34 0 0 1-3.7.505c-.89 0-1.213-.182-1.213-.687 0-.384.263-1.314.606-2.143.525-1.314.688-1.415 2.224-1.456l1.456-.061c.688-.021.971-.081 1.476-.344.606-.303 1.092-.728 1.072-.93 0-.162-.142-.202-.687-.202l-.546.02-.627.041c-.202 0-.445.021-.687.041l-1.9.162c-.04.021-.121.021-.162.021-.222 0-.344-.081-.344-.223 0-.101.041-.222.304-.809.384-.87.769-1.597.971-1.82.222-.263.768-.445 1.395-.465l2.123-.041zm4.692.909c-.283-.263-.465-.586-.465-.829 0-.485.425-.87 1.415-1.253 1.84-.708 3.983-1.092 6.065-1.092 1.213 0 1.981.202 2.648.667.729.546 1.193 1.395 1.193 2.265 0 1.112-.809 2.183-2.446 3.235-1.072.687-2.204 1.213-3.519 1.617.606 1.051 1.012 1.658 1.962 2.77.404.485.93 1.011 1.172 1.193.183.121.263.222.263.384 0 .283-.303.647-.909 1.052-.465.323-.85.465-1.233.465-.283 0-.586-.122-1.071-.425-.445-.283-.667-.525-1.557-1.739l-1.779-2.406a9.08 9.08 0 0 0-.809 2.547c-.122.809-.183.89-.708 1.233-.85.526-1.698.89-2.042.89-.223 0-.404-.101-.627-.344-.344-.404-.505-.728-.505-1.072 0-1.051.909-3.538 2.426-6.611l1.031-2.103-.506-.445zm-.121 2.811l-1.334 2.911c-.627 1.456-1.031 2.831-1.031 3.478 0 .223.101.344.283.344.161 0 .363-.081 1.011-.384.444-.202.849-.444.99-.606.121-.121.142-.182.223-.626.202-.93.485-1.799.788-2.467l.263-.586c.081-.182.183-.283.283-.283.081.02.162.101.283.283l.323.465.385.546 1.557 2.143.829 1.011c.303.364.525.505.849.505s.769-.182 1.173-.445c.243-.162.485-.445.485-.566 0-.081-.081-.162-.304-.283-.282-.142-.384-.222-.728-.647l-1.719-2.305-.323-.445-.162-.243c-.141-.202-.202-.344-.202-.465 0-.142.062-.182.364-.283.627-.202 1.496-.566 2.487-1.071 2.143-1.092 3.274-2.366 3.274-3.7 0-1.213-1.03-1.86-3.012-1.86-1.052 0-2.527.202-3.64.465-1.375.324-2.608.748-3.013 1.031-.202.142-.303.283-.303.445s.142.283.344.283c.04 0 .061 0 .101-.02l.688-.121c.102-.021.183-.021.223-.021.081 0 .162.081.162.162s-.041.182-.102.324l-1.496 3.033zm5.944-.89c-1.072.667-2.608 1.193-3.478 1.193-.202 0-.344-.081-.344-.202 0-.101.021-.162.425-1.011l.444-.93c.525-1.072.93-1.759 1.112-1.921.263-.222 1.313-.424 2.203-.424.829 0 1.396.445 1.396 1.071 0 .708-.647 1.517-1.759 2.224zm-.081-.566c.748-.526 1.213-1.072 1.213-1.395 0-.283-.263-.465-.748-.465-.384 0-.849.081-1.436.202a.84.84 0 0 0-.101.202l-.587 1.011-.606 1.132-.182.364c.99-.202 1.698-.505 2.446-1.051zm19.919 1.779l1.152-2.608.344-.748.282-.627c.122-.242.142-.344.223-.606.142-.606.183-.667.809-.991.688-.364 1.354-.586 1.8-.586.283 0 .465.102.708.344.323.344.586.809.586 1.072 0 .222-.081.424-.485.991l-.485.849-.465.809a46.16 46.16 0 0 0-1.84 3.841c-.627 1.496-1.031 2.689-1.132 3.376-.122.87-.202.991-.85 1.233-.546.202-1.011.424-1.354.606-.546.303-.687.364-.91.364-.242 0-.465-.121-.89-.485-.546-.465-.707-.748-.97-1.779-.142-.526-.324-1.597-.506-2.75l-.202-1.9-.708 1.476c-.222.425-.687 1.618-.889 2.204l-.344 1.213c-.142.708-.283.89-.829 1.172l-1.415.708a.92.92 0 0 1-.445.121c-.546 0-1.192-.708-1.192-1.314 0-.263.101-.546.424-1.193l.465-.95.425-.93.485-1.051 1.557-3.579.304-.708.566-1.456c.404-1.092.424-1.112.909-1.375.606-.324 1.698-.627 2.305-.627.364 0 .566.142.91.627.344.505.404.647.404 1.071l.142 1.638.182 1.557.223 1.638c.04.263.061.405.162.789l.546-1.436zm-7.865 2.123l-.404.89-.465 1.031-.445.91c-.363.748-.404.89-.404 1.011a.34.34 0 0 0 .344.344c.102 0 .223-.041.364-.101l1.233-.647c.323-.162.485-.364.565-.708l.062-.303c.08-.303.222-.708.404-1.193l.404-.991.565-1.274 1.396-3.033c.081-.141.101-.182.162-.162.061 0 .101.061.101.202v.142l.021.425.202 1.981.546 3.478c.323 1.618.606 2.204 1.051 2.204.202 0 .526-.101 1.112-.384l.728-.324c.769-.364.87-.445.971-1.031.081-.445.304-1.254.525-1.901.344-.97.95-2.386 1.456-3.457l.525-1.092.85-1.638.404-.667.303-.505.142-.203c.162-.242.223-.384.223-.465 0-.222-.242-.424-.525-.424-.323 0-.85.182-1.456.485-.505.263-.586.344-.667.708s-.182.667-.506 1.334l-.384.809-1.152 2.668c-.021.041-.142.324-.323.769l-.606 1.577-.183.627c-.04.101-.081.162-.142.162-.101 0-.142-.061-.242-.384-.323-1.092-.404-1.456-.566-2.507l-.363-3.012-.102-1.698-.021-.384c-.02-.606-.161-.849-.525-.849-.303 0-1.213.222-1.698.445-.485.202-.627.323-.728.626l-.102.263-.465 1.193-.304.768-.323.748-1.557 3.538zm21.918 2.386c-1.859 1.961-4.185 3.194-5.984 3.194-2.244 0-3.901-1.739-3.901-4.125 0-1.557.484-3.033 1.516-4.71 2.002-3.195 4.934-5.257 7.501-5.257 2.346 0 4.044 1.739 4.044 4.125 0 2.163-1.173 4.67-3.175 6.773zm-.869-10.453c-1.88 0-3.942 1.173-5.782 3.275-1.779 2.021-2.77 4.266-2.77 6.227 0 1.88 1.132 3.093 2.891 3.093 1.9 0 4.044-1.173 5.843-3.174.829-.91 1.537-1.941 2.022-2.932.525-1.092.909-2.466.909-3.356 0-1.799-1.334-3.134-3.113-3.134zm-.425 8.148c-1.152 1.779-2.628 2.729-4.164 2.729-1.233 0-1.962-.87-1.962-2.406 0-1.395.688-3.255 1.719-4.67 1.132-1.516 2.527-2.365 3.902-2.365 1.253 0 2.001.849 2.001 2.264s-.505 2.952-1.496 4.448zm-.404-5.823c-2.224 0-4.73 3.356-4.73 6.328 0 1.193.404 1.698 1.334 1.698 1.152 0 2.446-.93 3.457-2.507.87-1.375 1.335-2.77 1.335-3.902 0-1.031-.506-1.617-1.396-1.617zm6.977.485c-.283-.263-.465-.586-.465-.829 0-.485.425-.87 1.415-1.253 1.84-.708 3.983-1.092 6.065-1.092 1.213 0 1.981.202 2.648.667.729.546 1.193 1.395 1.193 2.265 0 1.112-.809 2.183-2.446 3.235-1.072.687-2.204 1.213-3.519 1.617.606 1.051 1.012 1.658 1.962 2.77.404.485.93 1.011 1.172 1.193.183.121.264.222.264.384 0 .283-.304.647-.91 1.052-.465.323-.85.465-1.233.465-.283 0-.586-.122-1.071-.425-.445-.283-.668-.525-1.557-1.739l-1.779-2.406a9.08 9.08 0 0 0-.809 2.547c-.122.809-.183.89-.708 1.233-.85.526-1.698.89-2.042.89-.223 0-.404-.101-.627-.344-.344-.404-.505-.728-.505-1.072 0-1.051.909-3.538 2.426-6.611l1.031-2.103-.506-.445zm-.121 2.811l-1.334 2.911c-.627 1.456-1.031 2.831-1.031 3.478 0 .223.101.344.283.344.161 0 .363-.081 1.011-.384.444-.202.849-.444.99-.606.121-.121.142-.182.223-.626.202-.93.485-1.799.788-2.467l.263-.586c.081-.182.183-.283.283-.283.081.02.162.101.283.283l.323.465.385.546 1.557 2.143.829 1.011c.303.364.525.505.849.505s.769-.182 1.173-.445c.242-.162.485-.445.485-.566 0-.081-.081-.162-.304-.283-.282-.142-.384-.222-.728-.647l-1.719-2.305-.323-.445-.162-.243c-.141-.202-.202-.344-.202-.465 0-.142.062-.182.364-.283.627-.202 1.496-.566 2.487-1.071 2.143-1.092 3.274-2.366 3.274-3.7 0-1.213-1.03-1.86-3.012-1.86-1.052 0-2.527.202-3.64.465-1.375.324-2.608.748-3.013 1.031-.202.142-.303.283-.303.445s.142.283.344.283c.04 0 .061 0 .101-.02l.688-.121c.102-.021.183-.021.223-.021.081 0 .162.081.162.162s-.041.182-.102.324l-1.496 3.033zm5.944-.89c-1.072.667-2.608 1.193-3.478 1.193-.202 0-.344-.081-.344-.202 0-.101.021-.162.425-1.011l.444-.93c.525-1.072.93-1.759 1.112-1.921.263-.222 1.313-.424 2.203-.424.829 0 1.396.445 1.396 1.071 0 .708-.647 1.517-1.759 2.224zm-.081-.566c.748-.526 1.213-1.072 1.213-1.395 0-.283-.263-.465-.748-.465-.384 0-.849.081-1.436.202a.84.84 0 0 0-.101.202l-.587 1.011-.606 1.132-.182.364c.99-.202 1.698-.505 2.446-1.051zm17.213 8.855c-.263.141-.484.222-.646.222-.223 0-.404-.162-.708-.647-.202-.344-.263-.505-.263-.789 0-.323.081-.991.243-1.698l.688-3.437-1.719 2.446-1.273 1.779c-.687.89-1.153 1.354-1.577 1.638-.385.243-.809.404-1.133.404-.363 0-.667-.182-1.011-.606-.444-.505-.525-.728-.525-1.334v-.182l.101-4.145-1.516 3.235-.344.768c-.485 1.072-.809 1.456-1.638 1.941-.809.465-1.577.789-1.9.789-.202 0-.425-.162-.647-.465-.202-.283-.242-.404-.242-.606a.74.74 0 0 1 .182-.505l.304-.445c.141-.223.202-.324.687-1.294l.283-.586 3.215-6.591.323-.647c.183-.424.304-.768.506-1.516l1.436-.505c.667-.202 1.011-.283 1.314-.283.424 0 .809.243 1.172.728.364.465.566.91.566 1.253 0 .162-.021.424-.061.768-.021.162-.04.506-.061 1.011l-.061 1.294-.061 1.819 1.374-1.84 1.153-1.597.565-.789.385-.525.748-1.092c.061-.081.182-.283.363-.546.809-.364 1.456-.526 2.123-.526.85 0 1.678.849 1.678 1.678 0 .263-.04.465-.303 1.557l-.202.87-.243 1.031-.626 2.952c-.102.424-.202 1.051-.304 1.658l-.223 1.658-.081.526-2.042 1.173zm1.112-2.002l.425-2.729.95-4.388.465-2.082.182-.91c0-.364-.384-.626-.889-.626-.485 0-1.012.142-1.779.485l-.95 1.436-.931 1.294-1.192 1.658-1.092 1.496-1.052 1.375-.242.263c-.142.202-.243.263-.323.263-.102 0-.142-.101-.142-.485v-.424l.04-1.011.021-.667.061-1.961.04-1.112.041-.849.04-.546c0-.142.021-.263.021-.364 0-.505-.263-.789-.708-.789-.363 0-1.517.344-2.305.667-.242.789-.404 1.213-.627 1.638l-.485.971-2.688 5.56-.304.586-.323.688a8.12 8.12 0 0 1-.748 1.274l-.242.344a.53.53 0 0 0-.102.263c0 .101.081.182.182.182.223 0 .647-.182 1.294-.546.991-.566 1.092-.687 1.76-2.143l1.557-3.376 1.192-2.346c.183-.303.243-.384.364-.384.081 0 .142.081.142.222v.081l-.041.586-.061.889-.04.566-.121 3.882-.021.465c0 1.233.142 1.577.667 1.577.384 0 .748-.182 1.132-.505.203-.182.526-.505.829-.91.162-.202.243-.283.546-.708l.587-.768.768-1.051 2.932-4.023c.162-.243.264-.344.344-.344.102 0 .142.061.142.162 0 .081-.061.404-.101.627l-1.011 4.428-.243 1.193-.202 1.132c-.04.223-.061.465-.061.607 0 .283.142.445.344.445.101 0 .242-.041.384-.122l1.557-.89.021-.243zm10.316-1.394c-.344 0-.95.041-2.184.122-1.092.081-1.273.101-1.455.182a1.67 1.67 0 0 0-.466.405l-.909 1.213c-.606.789-.91 1.092-1.436 1.375-.445.222-.971.384-1.335.384-.282 0-.505-.142-.788-.485-.242-.304-.364-.566-.364-.789 0-.182.081-.364.283-.566l.445-.485a8.13 8.13 0 0 0 .505-.586l.485-.586 6.449-8.067c.466-.586 1.173-1.354 1.436-1.557.283-.223.971-.506 1.537-.627l.546-.121c.142-.041.263-.061.344-.061.263 0 .546.223.95.728.323.384.525.768.525 1.031 0 .041-.021.081-.021.101l-.04.243c-.061.243-.102.505-.121.97l-.465 6.571-.021.566-.021.626v.384a1.59 1.59 0 0 0 .061.445l.081.283a.5.5 0 0 1 .021.162c0 .283-.364.626-1.173 1.132-.748.485-1.071.627-1.334.627-.344 0-.81-.364-1.133-.89-.182-.263-.242-.606-.242-1.314l.021-.728.04-.687h-.223zm.688.223c0 .02-.021.283-.04.708l-.021.768c0 .688.162 1.052.465 1.052.182-.021.485-.182 1.071-.607.627-.424.748-.546.748-.768a1.64 1.64 0 0 0-.04-.263 4.05 4.05 0 0 1-.061-.789v-.465l.546-7.885c.021-.344.081-.647.202-1.112.021-.081.021-.122.021-.162 0-.101-.081-.263-.202-.404-.102-.101-.183-.162-.283-.162-.142 0-.323.061-.869.223-.749.202-1.052.323-1.254.485-.182.122-.323.283-.748.769l-.687.829-6.409 8.006-1.192 1.416c-.344.323-.404.445-.404.586 0 .202.202.384.424.384.566 0 1.537-.708 2.244-1.638l.89-1.193c.465-.606.789-.768 1.759-.869l2.427-.182 1.334-.061c.121 0 .162.041.162.121v.081l-.081 1.132zm-1.719-4.873l1.173-1.314.728-.91c.122-.142.202-.222.264-.222.101 0 .141.081.141.202l-.363 4.327-.647.041-1.334.061-1.84.162a24.59 24.59 0 0 1 1.88-2.345zm1.557 1.617l.162-2.103-1.8 2.224 1.638-.122zm7.806-4.145c.424-.809.424-.768.505-1.213.121-.505.263-.687.829-.95.647-.303 1.314-.485 1.819-.485.404 0 .647.101.91.445.263.323.506.849.506 1.092 0 .162-.081.344-.264.606l-.525.768a36.39 36.39 0 0 0-1.254 2.143l-.788 1.739-.364.829-.222.566-.243.607-.263.667-.162.445c-.04.121-.061.202-.061.263 0 .202.142.303.445.303.849 0 2.345-.303 3.659-.728.283-.101.586-.162.728-.162.485 0 .971.607.971 1.173 0 1.395-3.032 2.79-6.005 2.79-1.192 0-1.961-.263-2.648-.95-.546-.546-.869-1.193-.869-1.779 0-.667.304-1.678 1.011-3.396.445-1.112 1.254-2.79 1.86-3.963l.425-.809zm-.122 1.132l-1.799 3.902c-.687 1.678-.931 2.467-.931 3.033s.385 1.193.951 1.476c.444.222 1.011.344 1.799.344 1.638 0 3.194-.384 4.367-1.051.788-.445 1.213-.87 1.213-1.213 0-.182-.101-.283-.283-.283-.081 0-.283.04-.525.121-.788.263-1.961.566-2.406.647a10.39 10.39 0 0 1-1.617.182c-.788 0-1.173-.243-1.173-.748 0-.566.344-1.577 1.233-3.639l1.719-3.458.869-1.375.243-.323c.121-.182.182-.324.182-.485 0-.303-.242-.505-.627-.505-.283 0-.971.162-1.476.384-.404.182-.606.364-.667.667l-.061.263c-.041.203-.122.384-.223.566l-.223.424-.566 1.072z"/></svg>